<svg xmlns="http://www.w3.org/2000/svg" width="100" height="100" viewBox="0 0 100 100"><g fill="none" fill-rule="evenodd" transform="translate(-300 -600)"><g transform="translate(310 608.234)"><path fill="#FB8CB1" d="M51.9998176,62.0035153 C51.9998176,62.0035153 54.7195725,52.9059764 64.1246515,55.5501648 C58.0216133,58.2593131 61.0720675,63.2393966 61.0720675,63.2393966 L51.9998176,62.0035153 Z" transform="rotate(73 58.062 59.097)"/><path fill="#FDC5D8" d="M63.2266174,63.8575597 C62.8114268,63.3788672 62.4007796,62.9849851 61.9975527,62.6641275 C60.8773979,56.9107264 55.9726739,55.5619302 53.6885469,55.2459161 L53.5102893,54.1493004 L53.5774954,54.1500596 C54.4254705,54.1674409 63.0164084,54.5726833 63.2266174,63.8575597 Z"/><path fill="#FFF2EE" d="M34.0685593,41.4816266 C15.7272476,52.9672481 20.6292761,74.7083439 34.7780976,81.5441145 C41.5786193,84.8296748 50.7872189,84.3706872 55.9724977,82.5826142 C56.4702903,82.4109572 63.0717334,84.6223454 63.0717334,84.6223454 L59.2161222,80.4870295 L61.9327231,76.1395593 C61.9327231,76.1395593 56.5078733,80.7634129 56.1188243,80.6240298 C51.3215786,78.9053387 49.1703023,74.0753813 55.8152364,66.7517594 C61.2772949,60.7318275 57.4769044,48.4382798 52.7392672,44.925982 L34.0685593,41.4816266 Z" transform="rotate(-32 42.61 63.052)"/><g transform="translate(.84 .28)"><path fill="#FFF2EE" d="M35.6675891,55.5119954 C57.1415775,54.9836942 69.9812919,41.888379 70.1970792,27.7863434 C70.4128664,13.6843078 58.378748,0.204609917 35.6675891,0.00233672969 C12.9564302,-0.199936457 0.377150723,12.7579768 0.00690295705,27.8853863 C-0.363344809,43.0127958 14.1936007,56.0402966 35.6675891,55.5119954 Z"/><path fill="#FB8CB1" d="M43.0910216,7.27992226 C43.0910216,7.27992226 49.8068162,7.18930013 54.9118142,9.84364779 C60.0168122,12.4979955 65.7115704,18.4248139 66.0022621,22.4960821 C66.0022621,22.4960821 52.1494238,28.6912822 46.991797,25.6166756 C41.8341703,22.542069 43.0910216,7.27992226 43.0910216,7.27992226 Z" transform="rotate(14 54.48 16.876)"/><g transform="rotate(3 -677.506 341.809)"><path fill="#FB8CB1" d="M8.70509895,11.8482882 C14.9076745,12.8599174 19.3118898,11.4152513 19.940884,7.8826864 C20.5698783,4.3501215 16.3849794,0.146706593 8.71092563,0.146706593 C2.4691216,0.146706593 0.574008402,2.89900206 0.275910356,5.33069377 C-0.0221876903,7.76238549 2.09574879,10.7703148 8.70509895,11.8482882 Z"/><path fill="#FDC5D8" d="M8.71092563,0.146706593 C16.3849794,0.146706593 20.5698783,4.3501215 19.940884,7.8826864 C19.7504804,8.95203339 19.2141379,9.8300577 18.386692,10.5065405 C18.6853173,10.0398146 18.8910767,9.51500692 18.9945904,8.93365189 C19.6235847,5.40108699 15.4386859,1.19767208 7.76463205,1.19767208 C4.46817386,1.19767208 2.38408136,1.9653339 1.10731838,3.04800949 C2.18502167,1.44638358 4.42168594,0.146706593 8.71092563,0.146706593 Z"/></g><path fill="#FB8CB1" d="M9.97150598,5.64071702 C3.17621952,9.82083302 1.3011117,17.3333868 1.3011117,17.3333868 C1.3011117,17.3333868 13.9157269,19.8838641 18.2190062,17.9224376 C22.3121153,16.0568064 24.3915952,2.98387332 24.3915952,2.98387332 C24.3915952,2.98387332 16.7667924,1.46060103 9.97150598,5.64071702 Z" transform="rotate(-6 12.846 10.689)"/><path fill="#FDC5D8" d="M45.7508432 4.80993037C45.7508432 4.80993037 52.2890735 6.34669785 56.6002864 10.1572108 60.9114993 13.9677238 65.0032717 21.0961771 64.3003997 25.1168359 64.3003997 25.1168359 63.9640588 25.1767166 63.377916 25.264217 63.4515808 21.1518086 59.6213839 14.7113021 55.6002864 11.1572108 52.0981012 8.06176592 47.1263034 6.4667696 45.3836512 5.97715244 45.6047828 5.24125545 45.7508432 4.80993037 45.7508432 4.80993037zM9.45961435 5.96887287C15.7807344 1.10135513 23.522993 1.81927387 23.522993 1.81927387 23.522993 1.81927387 23.5040654 2.17588772 23.4552542 2.78208529 21.123422 2.77806979 15.3638047 3.19244827 10.4596143 6.96887287 5.45675694 10.8212751 3.73718566 16.42751 3.23754374 18.5983072 2.49660512 18.545397 2.05893421 18.503792 2.05893421 18.503792 2.05893421 18.503792 3.13849428 10.8363906 9.45961435 5.96887287z"/></g><path fill="#FFF" d="M16.2562312 35.660243C19.4599653 37.6721423 21.6240894 33.4601012 21.6240894 33.4601012L14.5332526 26.2478807C14.5332526 26.2478807 13.0524971 33.6483438 16.2562312 35.660243zM40.980743 39.7081079C45.3178523 38.9122978 47.3397063 31.2519852 47.3397063 31.2519852L36.1655958 35.8130503C36.1655958 35.8130503 36.6436337 40.503918 40.980743 39.7081079z"/></g><g transform="translate(310 607.234)"><path fill="#A95F78" fill-rule="nonzero" d="M35.8254444,0.781758448 L36.5114865,0.783115008 C57.8805733,0.97343525 71.7780154,13.2890604 71.5364651,29.0747519 C71.3805149,39.2663386 65.0936444,48.09336 54.92436,53.0524545 C55.2328428,53.6671855 55.4996513,54.2916472 55.718152,54.9200046 C56.3278291,55.0509653 56.9446946,55.2319591 57.5547384,55.4691344 C61.2462318,56.9043284 63.6106179,59.901154 63.7225091,64.8433561 C63.7331102,65.3116054 63.1518052,65.5361074 62.8449191,65.1822844 C61.657978,63.8138051 60.4705595,63.1150632 59.297587,62.9583882 C58.0794312,62.795678 56.9410163,63.2180294 55.9543753,63.9758052 L55.8857119,64.0296485 C55.8497357,69.6818481 58.6754256,72.3241021 63.0907912,71.3675141 C63.4512125,70.7857862 64.239243,68.5837367 65.4548824,64.7613655 C65.6273179,64.2163774 66.4315898,64.3405798 66.4315898,64.9121968 L66.4315898,64.9121968 L66.4314016,69.6555372 L71.5221663,71.0194716 C71.9936103,71.145836 72.0129255,71.7857667 71.5931246,71.9613985 C70.5442448,72.1772288 68.2398856,72.8064756 64.680047,73.8491389 C60.5711566,78.9279172 52.7137651,83.6319622 45.8212539,84.3823417 C37.9146489,85.2431243 29.8887003,81.7078652 25.0445767,75.3232026 C20.7942266,69.7211468 19.449927,62.6505747 21.5135622,55.2315269 C8.54430194,51.0646168 0.0551918398,41.055924 0.346497089,29.1539108 C0.43691893,25.4594976 1.20788118,21.9943575 2.59046367,18.8416359 C2.72350262,18.2779634 2.89166296,17.6064166 2.98187583,17.3130453 C3.53385477,15.5180157 4.32861401,13.6979245 5.41169857,11.9614805 C6.63427416,10.0013991 8.15123903,8.27243311 9.99394695,6.85347359 C12.759309,4.72403313 15.9741095,3.46773214 19.3720448,2.89649288 C19.9795322,2.79436597 21.1761399,2.71477224 22.2520005,2.66370491 C26.1570722,1.50342921 30.5036928,0.850482327 35.2232115,0.78609403 L35.2232115,0.78609403 L35.8254444,0.781758448 Z M54.0196603,53.4788084 L53.5644147,53.6822871 C48.6376184,55.8466432 42.8786159,57.136152 36.5193308,57.2926026 L36.6229321,57.2904393 C35.808768,59.1613621 34.7016445,60.5209627 33.3510979,61.4121425 C34.823494,62.5261127 37.0046194,62.715692 39.72118,62.1417337 C41.429088,61.7808848 43.1988418,61.1486174 44.8898149,60.3763704 C45.3188201,60.1804488 46.2302352,59.726914 46.4711942,59.5920312 C46.7121531,59.4571484 47.0168331,59.5431401 47.151716,59.784099 C47.2865988,60.025058 47.1738339,60.344725 46.9596481,60.4646209 C46.7454624,60.5845167 45.6378941,61.1340786 45.3052324,61.2860012 C43.5528103,62.0863113 41.7173262,62.7420617 39.9278977,63.1201344 C36.7531368,63.7909017 34.1475572,63.4984845 32.4107048,61.9393586 C31.5984837,62.3210823 30.712639,62.5601805 29.7629622,62.6636736 C27.7965836,62.8779641 25.7114241,62.4987784 23.6581291,61.7385097 C23.1466499,61.5491255 22.0116719,61.0298388 21.590325,60.8175569 C21.3244234,65.9470584 22.8096322,70.7230529 25.8412327,74.7187697 C30.474949,80.8261107 38.1587126,84.2106446 45.7130246,83.3882157 C52.3274532,82.6681108 59.9517643,78.1036058 63.9026149,73.220172 C64.1036813,72.9716447 64.8452149,72.703649 66.3545488,72.2824189 L66.3545488,72.2824189 L69.387776,71.4825093 L65.8021407,70.521592 C65.6147931,70.4713759 65.4763713,70.3186746 65.4406457,70.1335686 L65.4406457,70.1335686 L65.4312339,68.0341765 L64.8653305,69.6704291 C64.17867,71.6108803 63.893878,72.195387 63.4839537,72.2846834 C57.2983223,73.632138 53.6390506,69.1895999 55.2768215,60.1039649 C55.6590839,57.9833404 55.1286805,55.6744658 54.0196603,53.4788084 Z M56.051488,56.0282792 L56.0589325,56.0580356 C56.4162118,57.4843444 56.5075337,58.913484 56.2609603,60.2813651 C56.1024986,61.1604411 55.9956157,61.991645 55.9376029,62.7737228 C56.9787502,62.1291462 58.1562181,61.7970533 59.4299821,61.9671911 C60.4387044,62.1019271 61.4341532,62.5527473 62.4033926,63.3492499 L62.6312736,63.5428626 C62.1907793,59.9278714 60.2967723,57.6944935 57.4463539,56.5035578 L57.192377,56.4011721 C56.8144268,56.254231 56.4327344,56.1306011 56.051488,56.0282792 Z M22.4693982,55.5256455 L22.4141992,55.7277748 C22.0429246,57.109334 21.7947516,58.4764379 21.6660452,59.8215632 C21.7662255,59.8103661 21.8684453,59.8304449 21.9608978,59.883283 C22.2006475,60.0203037 23.458529,60.5982562 24.0053588,60.8007295 C25.9256854,61.5117644 27.8655486,61.864528 29.6546263,61.6695593 L29.6546263,61.6695593 L29.9224221,61.6360864 C32.3412945,61.2942852 34.2508994,59.9354473 35.5162193,57.3073491 C30.8456675,57.3295164 26.4573913,56.6991939 22.4693982,55.5256455 Z M35.8594444,1.78075845 L35.2453915,1.78584502 C31.5284076,1.835749 28.0527078,2.25624801 24.8515401,3.00568119 C24.860974,3.04471879 24.8638741,3.08518688 24.8616797,3.12653222 C24.8473779,3.39598982 24.6985958,5.1721896 24.6589304,5.55440234 C24.4699578,7.37532774 24.2066464,9.20450718 23.8562504,10.9257623 C23.0027214,15.1185657 21.7903741,18.0009386 20.0389075,19.0327716 C18.487547,19.946717 15.7666907,20.4157246 12.164139,20.5524872 C10.4939801,20.6158909 8.70658549,20.6035945 6.87688666,20.5329099 C5.98441516,20.4984321 3.80443981,20.3541378 3.0717616,20.2998114 C2.01364682,23.0504104 1.42329636,26.028318 1.3461977,29.1783787 C1.04110458,41.6437303 10.8193422,51.9987156 25.3836204,55.2474766 C25.2602491,55.0354498 25.3086836,54.760741 25.5061749,54.6049934 C25.6103154,54.522865 25.8004414,54.3872891 26.0709372,54.2162491 C26.5153246,53.9352537 27.0285107,53.655167 27.6049665,53.3941367 C30.0330277,52.2946636 32.7743643,51.8612487 35.7005206,52.4815783 C35.9706595,52.5388463 36.1432254,52.804262 36.0859574,53.0744008 C36.0286894,53.3445396 35.7632737,53.5171055 35.4931349,53.4598375 C32.7943499,52.8877094 30.2641826,53.2877378 28.0174659,54.3050945 C27.4847789,54.5463055 27.0120079,54.8043345 26.6053783,55.0614548 C26.4986607,55.1289345 26.3386717,55.2385156 26.1254113,55.390198 C26.1197052,55.394698 26.1139317,55.3990538 26.1080949,55.4032659 C29.3595377,56.067951 32.8410281,56.3827933 36.4947363,56.2929051 C56.5033786,55.8006542 70.3094466,43.9031133 70.5365821,29.0594518 C70.7691095,13.8634259 57.3466489,1.9687196 36.5054626,1.78309271 L36.5054626,1.78309271 L35.8594444,1.78075845 Z M17.303961,42.4582433 C17.9005683,39.0708939 20.887839,37.0152013 26.5173139,37.3102296 C33.8326743,37.6936113 38.7825544,41.9600781 37.7878399,46.2359449 C36.9043248,50.0338114 32.2163839,51.3853016 25.7667117,49.9833753 C19.7236786,48.6698377 16.7374693,45.674605 17.303961,42.4582433 Z M26.4649779,38.3088591 C21.3130064,38.0388557 18.7922032,39.7735483 18.2888022,42.6317015 C17.8330791,45.2191541 20.3995714,47.7934015 25.9791158,49.0061934 C31.9650986,50.3073304 36.0906799,49.1179633 36.8138483,46.0093608 C37.639738,42.4592019 33.2362967,38.6637289 26.4649779,38.3088591 Z M46.6270317,5.59235281 L46.7111192,5.60580483 C48.6765427,6.18734125 50.1646018,6.68940666 51.1752963,7.11200105 C53.7153245,8.17404464 55.9825698,9.48274266 57.7713078,11.0637384 C62.4701722,15.2168814 66.3364623,22.4590581 65.6328234,26.4841038 C65.5966324,26.6911286 65.4348432,26.8534239 65.2279325,26.8902614 C65.0210217,26.9270989 61.0206985,27.4574228 59.632644,27.563117 C57.7107493,27.7094607 55.861016,27.7612857 54.1445286,27.6947694 C50.1526707,27.5400793 47.1864363,26.7697062 45.5872605,25.181636 C43.757925,23.3650044 43.3513555,19.875778 43.960512,15.2192494 C44.3224593,12.4524434 44.999338,9.59205511 45.778392,7.00594369 C45.8081139,6.90728 45.9210342,6.54887411 46.1171528,5.93072601 C46.2005464,5.68445981 46.4587647,5.543205 46.7111192,5.60580483 Z M46.9209257,6.69293129 L46.7358894,7.29438532 C45.9711474,9.83298769 45.3058808,12.6443051 44.9520637,15.348962 C44.3809655,19.7145634 44.7578032,22.9486273 46.2918992,24.4720697 C47.6619639,25.8326199 50.4234722,26.5498227 54.1832509,26.6955194 C55.8579453,26.7604162 57.6704546,26.7096341 59.5567182,26.5660035 C60.4677294,26.4966341 62.1735455,26.3097421 64.6741663,26.0053275 C65.098034,22.3464332 61.5442253,15.8714287 57.3708202,12.0485865 L57.3708202,12.0485865 L57.1090511,11.8130154 C55.4132569,10.314169 53.2366805,9.05780688 50.7895366,8.03460032 C49.898191,7.66190846 48.608654,7.21468545 46.9209257,6.69293129 L46.9209257,6.69293129 Z M23.8310304,3.57027568 C23.133502,3.41462876 21.7024359,3.51875501 19.5378321,3.88265443 C16.2909263,4.42850355 13.227457,5.62566636 10.6040606,7.64578747 C8.86049531,8.9884032 7.42220883,10.6276952 6.26017811,12.4907087 C5.2261351,14.1485273 4.46561863,15.8901986 3.93770539,17.6069668 C3.87827808,17.8002238 3.72878996,18.3755419 3.48924101,19.3329211 C6.95145164,19.5669317 9.83043919,19.6403604 12.1262037,19.553207 C15.5698504,19.4224769 18.1673199,18.9747381 19.5313179,18.1711726 C20.944859,17.33842 22.0794441,14.6409279 22.8763483,10.7262836 C23.4076177,8.11652074 23.7258451,5.73118477 23.8310304,3.57027568 Z"/><path fill="#AF8981" fill-rule="nonzero" d="M61.000304,38.4286109 C61.3825501,38.5959455 61.7691546,38.8282236 62.1474121,39.1017774 C62.4470618,39.3184824 62.6789384,39.513407 62.8133923,39.6384259 C62.9145066,39.7324448 62.9202586,39.8906315 62.8262397,39.9917458 C62.7322208,40.0928601 62.5740341,40.0986121 62.4729198,40.0045932 L62.3214985,39.8709614 C62.200736,39.7687055 62.0419087,39.6425294 61.854408,39.5069299 C61.5028141,39.2526591 61.1455303,39.0379974 60.799792,38.8866446 C60.2604537,38.6505403 59.7978867,38.5904109 59.4447603,38.7331672 C59.0578798,38.889569 58.6998478,39.226303 58.3791651,39.7018012 C58.0824874,40.1417057 57.8621178,40.6215863 57.7202555,41.0231616 L57.6526386,41.2274319 C57.613255,41.3597671 57.4740495,41.4351192 57.3417144,41.3957356 C57.2282843,41.3619783 57.1567192,41.2548824 57.1633883,41.1416361 L57.1748602,41.0800042 L57.1783903,41.0685296 C57.3265037,40.5917938 57.5861447,39.9834351 57.9646282,39.4222316 C58.3361004,38.8714243 58.7638449,38.4691249 59.2573623,38.2696136 C59.7587324,38.0669277 60.3495369,38.1437267 61.000304,38.4286109 Z M53.1562879,35.0305468 L53.2131858,35.0401442 L53.2451708,35.0497419 C53.7564286,35.2062523 54.3882971,35.4636738 54.9718746,35.8236894 C55.6055282,36.2145975 56.0602715,36.6611243 56.2685652,37.176366 C56.4394091,37.5989708 56.4878968,38.0864714 56.4376837,38.6202907 C56.3811733,39.2210572 56.2104472,39.8151081 55.9976319,40.3339157 L55.918042,40.5171568 C55.85877,40.6418584 55.70963,40.6948996 55.5849284,40.6356277 C55.4602268,40.5763557 55.4071856,40.4272157 55.4664575,40.3025141 L55.5350386,40.1441595 C55.7307314,39.6670935 55.88872,39.1173636 55.9398811,38.5734654 C55.9831658,38.1133033 55.9424227,37.7036687 55.8050115,37.3637641 C55.644162,36.9658817 55.2607306,36.5893783 54.7093548,36.2492283 C54.2460073,35.9633839 53.7419568,35.7441669 53.308904,35.5959894 L53.0741506,35.5204246 C52.9415248,35.4820311 52.8651345,35.3433926 52.903528,35.2107668 C52.9364368,35.0970876 53.0429949,35.0247242 53.1562879,35.0305468 Z M61.2818533,31.8380525 L61.3374739,31.843441 L61.3921519,31.8618747 C61.5170812,31.9206652 61.5706973,32.0695995 61.5119068,32.1945288 L61.3896833,32.476836 C61.1749396,32.9991572 60.9883881,33.5689484 60.8799193,34.1199898 C60.7501631,34.7791752 60.7518764,35.3289383 60.908091,35.7153556 C61.0422621,36.0472455 61.2499198,36.3580923 61.5169796,36.6462276 C61.7665476,36.9154908 62.0535875,37.1502263 62.3528259,37.3480781 L62.5478725,37.4709428 C62.6347952,37.5228125 62.7045932,37.5602716 62.7517592,37.5830197 C62.8761218,37.6429995 62.9283144,37.7924387 62.8683346,37.9168013 C62.8083547,38.041164 62.6589156,38.0933566 62.5345529,38.0333767 L62.388591,37.9564835 C62.3020689,37.9078861 62.1964314,37.8440815 62.0770608,37.7651555 C61.7466361,37.5466839 61.4293251,37.2871933 61.1502692,36.9861151 C60.8442188,36.6559121 60.6030975,36.294973 60.4445374,35.9027536 C60.2445233,35.4079927 60.2425325,34.7691967 60.3893334,34.0234213 C60.5050444,33.4355887 60.7011218,32.8367019 60.9272416,32.2867107 L61.0594978,31.9816296 C61.101491,31.8923944 61.189476,31.8395435 61.2818533,31.8380525 Z M59.3602641,31.4387714 C59.4982417,31.443854 59.6059744,31.5598272 59.6008919,31.6978048 L59.5907435,31.8795163 C59.580676,32.0215735 59.5636188,32.203537 59.5372583,32.4138514 C59.4759622,32.9028954 59.3825514,33.3802031 59.2496375,33.8144907 C58.9847716,34.6799235 58.5944543,35.2826239 58.0269109,35.5120612 C57.5561031,35.7023919 57.0164447,35.6684567 56.4329479,35.4621092 C56.0209905,35.3164248 55.6078807,35.0924766 55.2095912,34.8211779 C54.9535861,34.6467976 54.7583834,34.4918232 54.6460095,34.3926991 C54.5424651,34.3013634 54.532568,34.1433818 54.6239037,34.0398374 C54.7152394,33.936293 54.8732209,33.9263959 54.9767653,34.0177317 C55.0745853,34.1040179 55.2539522,34.24642 55.4910738,34.4079376 C55.8565776,34.656904 56.2334852,34.8612269 56.5996507,34.9907174 C57.0782432,35.1599666 57.4984428,35.1863899 57.8395129,35.0485076 C58.2310715,34.8902145 58.546661,34.4029035 58.7715279,33.6681651 C58.8950256,33.264644 58.9831454,32.8143723 59.0411401,32.3516686 L59.0723037,32.0742514 C59.0890016,31.9051043 59.0979107,31.7695307 59.1012308,31.6793992 C59.1063133,31.5414216 59.2222865,31.4336889 59.3602641,31.4387714 Z"/><ellipse cx="31.016" cy="45.012" fill="#FFF" rx="1.785" ry="1.782" transform="rotate(3 31.016 45.012)"/><ellipse cx="23.026" cy="43.269" fill="#FFF" rx="1.785" ry="1.782" transform="rotate(3 23.026 43.27)"/><path fill="#A95F78" fill-rule="nonzero" d="M14.0429707,27.1497804 C13.9642447,27.5432341 13.9045949,27.9858512 13.866354,28.288763 C13.6995837,29.6097754 13.6374789,30.9680086 13.7420317,32.2446954 C13.9282763,34.5189131 14.6174284,36.2215146 15.9903233,37.083673 C17.8558723,38.2552111 19.5857817,37.7175932 21.0084174,36.1708719 C21.3049504,35.8484958 21.9702588,34.8804364 22.0688221,34.6886025 C22.1673853,34.4967686 22.1318347,34.2633536 21.9806304,34.1095609 L14.8897936,26.8973404 C14.6084832,26.6112145 14.1216966,26.7563268 14.0429707,27.1497804 Z"/><path fill="#FFF" d="M14.872,28.306 L20.999,34.538 C20.6850902,34.9899243 20.4428989,35.3085513 20.2724261,35.4938808 C19.1408383,36.7240873 17.9081974,37.1072378 16.5221392,36.236813 C15.4796728,35.582159 14.901774,34.1544169 14.7386952,32.1630748 C14.6545776,31.1359213 14.6859892,30.0394053 14.7966895,28.9548926 L14.872,28.306 Z"/><path fill="#A95F78" fill-rule="nonzero" d="M47.1507505,31.7890643 L35.9766401,36.3501295 C35.7712725,36.4339567 35.6456836,36.6430676 35.6681721,36.8637419 C35.6831041,37.0102661 35.7225578,37.2509485 35.797683,37.5555768 C35.9222425,38.0606581 36.1054545,38.5662433 36.3606036,39.0422485 C37.2648685,40.7292419 38.8194672,41.6130247 41.0709808,41.1998976 C43.0618044,40.8346042 44.7018582,39.209813 46.0480222,36.7536574 C46.5727051,35.7963425 47.0167404,34.7742139 47.383195,33.7524582 C47.606318,33.1031067 47.7529698,32.6454823 47.8231505,32.3795849 C47.9284214,31.9807389 47.5326646,31.6331741 47.1507505,31.7890643 Z"/><path fill="#FFF" d="M36.724,37.124 L46.546,33.115 C46.4398175,33.7416957 45.9815159,34.7943735 45.1710954,36.2730334 C43.9554647,38.4910234 42.514803,39.918278 40.8905052,40.2163182 C39.096015,40.5455867 37.952597,39.8955584 37.2419708,38.5698167 C37.1004881,38.305867 36.9278311,37.8239281 36.724,37.124 Z"/><circle cx="39.255" cy="36.637" r="1" fill="#A95F78"/><circle cx="19.241" cy="33.539" r="1" fill="#A95F78"/></g></g></svg>