<svg xmlns="http://www.w3.org/2000/svg" width="100" height="100" viewBox="0 0 100 100"><g fill="none" fill-rule="evenodd" transform="translate(-750 -450)"><g transform="translate(753 454.234)"><path fill="#FB8CB1" d="M56.3507732,61.5635258 C56.3507732,61.5635258 58.3082809,55.7418355 66.9851011,58.1761529 C61.3546364,60.6702744 64.1688863,65.2550853 64.1688863,65.2550853 L56.3507732,61.5635258 Z" transform="rotate(66 61.668 61.418)"/><path fill="#FDC5D8" d="M66.7922973,64.956958 C66.2986369,64.5107741 65.8227802,64.1645938 65.3666436,63.9020149 C64.0111439,58.9812981 60.9294523,57.894916 59.3482044,57.6685436 L59.3724074,56.6197847 C59.3724074,56.6197847 65.4869762,56.0401622 66.7922973,64.956958 Z"/><path fill="#FFF2EE" d="M22.1433514,44.3281191 C7.78912444,57.5402563 13.8689091,79.4870109 29.5923084,87.0835128 C37.5976515,90.9511627 50.4718083,90.1230576 55.3073364,84.3093955 C55.6342634,83.9163375 62.0576526,83.9611916 61.4264623,81.3333511 C60.795272,78.7055107 56.9156737,81.2912261 56.9156737,81.2912261 C56.9156737,81.2912261 56.975686,76.4380414 55.1124161,77.0077001 C53.2491463,77.5773589 54.7405707,82.3934731 54.2331349,82.5573682 C47.8370172,84.6232298 42.6294534,78.9289027 51.028957,68.2916779 C57.7308656,59.8043062 54.8171941,50.2934339 49.5523201,46.3902635 L22.1433514,44.3281191 Z" transform="scale(-1 1) rotate(17 0 -185.71)"/><path fill="#FFF2EE" d="M21.7906444,63.9746314 C21.7906444,58.5941346 18.4907458,55.6931188 16.3588839,57.2420072 C13.2167139,59.5249273 15.886232,69.028588 19.0771008,70 L21.7906444,63.9746314 Z" transform="matrix(1 0 0 -1 0 126.827)"/><g transform="rotate(3 -1.897 68.842)"><path fill="#FFF2EE" d="M36.5052018,55.6177624 C57.9791902,55.0894612 70.8189047,41.994146 71.0346919,27.8921104 C71.2504792,13.7900748 59.2163608,0.310376901 36.5052018,0.108103713 C13.7940429,-0.0941694737 1.21476347,12.8637438 0.844515699,27.9911533 C0.474267933,43.1185628 15.0312134,56.1460636 36.5052018,55.6177624 Z"/><path fill="#FB8CB1" d="M42.7723455,7.60249815 C42.7723455,7.60249815 49.4881401,7.51187601 54.5931381,10.1662237 C59.6981361,12.8205713 65.3928942,18.7473897 65.683586,22.818658 C65.683586,22.818658 51.8307477,29.0138581 46.6731209,25.9392515 C41.5154942,22.8646449 42.7723455,7.60249815 42.7723455,7.60249815 Z" transform="rotate(14 54.16 17.199)"/><path fill="#FF8B8B" d="M26.0319792,52.9642636 C27.9649758,52.9642636 29.8575474,51.8950635 29.8575474,49.4097822 C29.8575474,46.9245008 28.290544,44.9097822 26.3575474,44.9097822 C24.4245507,44.9097822 22.8575474,46.9245008 22.8575474,49.4097822 C22.8575474,51.8950635 24.0989826,52.9642636 26.0319792,52.9642636 Z" transform="rotate(16 26.358 48.937)"/><g transform="rotate(3 -686.6 340.309)"><path fill="#FB8CB1" d="M8.46978249,11.7090893 C14.672358,12.7207185 19.0765733,11.2760524 19.7055676,7.74348753 C20.3345618,4.21092262 16.149663,0.00750771676 8.47560918,0.00750771676 C2.23380515,0.00750771676 0.33869195,2.75980318 0.0405939044,5.1914949 C-0.257504142,7.62318661 1.86043234,10.6311159 8.46978249,11.7090893 Z"/><path fill="#FDC5D8" d="M8.47560918,0.00750771676 C12.7956607,0.00750771676 16.0099839,1.33958811 17.8822469,3.13418521 C15.9564492,1.80617854 13.1426901,0.897501149 9.57465954,0.897501149 C3.3328555,0.897501149 1.43774231,3.64979661 1.13964426,6.08148833 C0.999499467,7.22469924 1.39335168,8.49527139 2.53685167,9.6327885 C0.547048707,8.30343234 -0.137538224,6.64458198 0.0405939044,5.1914949 C0.33869195,2.75980318 2.23380515,0.00750771676 8.47560918,0.00750771676 Z"/></g><path fill="#FB8CB1" d="M9.65282987,5.96329291 C2.85754341,10.1434089 0.982435592,17.6559627 0.982435592,17.6559627 C0.982435592,17.6559627 13.5970508,20.20644 17.9003301,18.2450135 C21.9934392,16.3793823 24.0729191,3.3064492 24.0729191,3.3064492 C24.0729191,3.3064492 16.4481163,1.78317691 9.65282987,5.96329291 Z" transform="rotate(-6 12.528 11.011)"/><path fill="#FDC5D8" d="M45.4321671 5.13250626C45.4321671 5.13250626 51.9703974 6.66927374 56.2816103 10.4797867 60.5928232 14.2902997 64.6845956 21.418753 63.9817236 25.4394118 63.9817236 25.4394118 63.6660993 25.4956042 63.1135185 25.5786623 63.1498092 21.4635414 59.3370984 15.067771 55.3353167 11.5307522 51.7902972 8.39744775 46.7394965 6.80151949 45.0561975 6.33322403 45.2815237 5.5773654 45.4321671 5.13250626 45.4321671 5.13250626zM9.14093824 6.29144876C15.4620583 1.42393102 23.2043169 2.14184975 23.2043169 2.14184975 23.2043169 2.14184975 23.1886583 2.43687158 23.1490973 2.94637925 20.7864276 2.94853014 15.0695948 3.38184853 10.1971502 7.13382765 5.06613303 11.0849181 3.38877457 16.8808492 2.93904822 18.9232412 2.18627867 18.8687666 1.74025809 18.8263679 1.74025809 18.8263679 1.74025809 18.8263679 2.81981817 11.1589665 9.14093824 6.29144876z"/></g></g><g transform="translate(755 455.234)"><path fill="#A95F78" fill-rule="nonzero" d="M23.5251277,1.8968911 C27.5432421,0.906155428 31.9914468,0.462587388 36.7937956,0.648616469 L36.7937956,0.648616469 L37.3969167,0.675416997 L38.0804611,0.713064637 C59.4103016,2.02149564 72.6441478,15.0475785 71.5767692,30.7989946 C70.958499,39.9228725 65.4694564,47.6915838 56.8258576,52.3847149 C57.1960998,53.2725194 57.5151237,54.1814395 57.7835011,55.1051505 C58.3512385,55.1205093 59.0909556,55.245491 59.9148725,55.5668225 C62.6202956,56.6219501 64.6046421,59.2461122 65.2833114,63.8821784 C65.3512003,64.3459353 64.8010373,64.6398194 64.4533182,64.3255413 C63.2205498,63.2113314 62.0652657,62.7081626 60.9857338,62.6958461 C60.197202,62.6868496 59.4761849,62.9367151 58.8359849,63.363818 C58.6509733,70.5382742 55.6698172,77.7782026 49.837285,83.1766812 L49.5446776,83.4422278 C42.6402303,89.5867332 30.1239806,92.303595 23.8725433,88.1399473 C23.0080671,88.2579313 22.061398,88.3856135 21.0325362,88.5229941 C18.5271405,88.7534563 16.9760921,88.3169233 16.8742413,86.6487067 C16.7878481,85.2336704 17.7035543,84.5268184 19.1412507,84.4371508 C19.4448821,84.4182136 20.0545906,84.4662289 20.970376,84.5811967 C20.7810967,83.6796798 20.6743418,83.023656 20.6501111,82.6131254 C20.5626737,81.13171 20.9730538,80.1355475 22.1467664,80.1355475 C23.2830337,80.1355475 23.9060012,81.1253022 24.3506042,82.8609442 C24.5274859,83.5514553 24.698332,84.3262958 24.8631425,85.1854656 L25.1648198,85.1777638 C28.0281765,85.0473189 30.0282078,83.5216221 30.2581218,81.2784111 C30.537342,78.5541322 28.3201018,75.1373348 23.5553668,71.7535523 L23.2188095,71.5175371 C21.4503241,70.2927873 19.9883275,68.8694681 18.8295155,67.3261403 C17.5701965,69.3059959 15.7003124,70.1400258 14.0649913,68.9518954 C11.1567943,66.8389666 12.6342937,58.9188484 15.5551372,56.1596823 C15.6776186,54.9311446 15.9564166,53.7301282 16.390639,52.5879714 C5.94139997,47.2446388 -0.337236056,37.7710929 0.480221756,27.1522499 C0.714507102,24.1088644 1.40425317,21.2459795 2.50822465,18.6083509 L2.27955166,18.5798754 C1.99763977,18.5380943 1.80761499,18.2694905 1.8620646,17.9897492 C1.88641733,17.8646342 2.38474814,16.1160348 2.56564027,15.6215334 C3.21080734,13.8578521 4.0997336,12.0818497 5.27221229,10.4044698 C6.59569512,8.51105922 8.20106813,6.86385454 10.1155133,5.54327954 C12.950387,3.58779741 16.1799649,2.50343324 19.5596532,2.09758244 C21.3470435,1.88294318 22.6143308,1.87230969 23.4513734,1.91528789 Z M55.9348729,52.8509992 L55.628214,53.0052543 C49.9083839,55.831024 42.925423,57.3619752 35.1308165,57.1455185 C28.461085,56.9602996 22.4072751,55.4807827 17.2908325,53.034736 C17.0064075,53.8006957 16.7964014,54.5967425 16.6620339,55.4109551 L16.7586129,55.3702641 L16.7586129,55.3702641 L16.9314818,55.3110687 C17.1956536,55.2306456 17.475003,55.3796033 17.5554261,55.6437751 C17.6358493,55.9079469 17.4868915,56.1872963 17.2227198,56.2677194 C14.2084351,57.1853731 12.0195354,66.2297167 14.6527765,68.1428784 C16.5456865,69.518158 19.2906444,66.4896458 19.2906444,61.8147627 C19.2906444,61.5386203 19.514502,61.3147627 19.7906444,61.3147627 C20.0667867,61.3147627 20.2906444,61.5386203 20.2906444,61.8147627 C20.2906444,63.5338192 19.9339011,65.0937278 19.3575759,66.3520797 C20.4283705,67.8650146 21.803116,69.2682028 23.484914,70.4811238 L23.7881495,70.695435 C29.0532611,74.3417441 31.5831093,78.1587054 31.2529104,81.3803702 C30.9500154,84.3356372 28.2320318,86.2425881 24.6023414,86.1855828 C24.1975986,86.1792262 24.0480836,85.9584261 23.9082328,85.4858093 C23.768382,85.0131925 23.435488,83.3183593 23.3818822,83.1090926 C23.0458226,81.7971828 22.6293788,81.1355475 22.1467664,81.1355475 C21.7721439,81.1355475 21.5906445,81.5761218 21.6483738,82.5542051 C21.693788,83.3236394 22.0373518,84.7323011 22.1531473,85.113959 C22.2689427,85.4956169 21.9131948,85.8525762 21.5311455,85.7380789 C21.1490962,85.6235816 19.5798771,85.4117372 19.2034987,85.4352115 C18.2529334,85.4944973 17.8257663,85.8242361 17.8723827,86.5877665 C17.9208974,87.3823897 18.8768296,87.6839712 20.6984306,87.5474811 C22.5200316,87.4109909 23.5024518,87.177429 23.5517839,87.171835 C23.9749168,87.1238539 24.1672121,87.124543 24.3693037,87.2570296 C30.2570955,91.11693 42.5228414,88.5841808 49.1580135,82.4427942 C57.7153291,74.5223088 59.9056786,62.5007962 55.9348729,52.8509992 Z M51.702588,63.731329 C51.702588,67.1615295 46.5944656,67.7153913 42.2691793,64.5728868 C42.0457754,64.4105744 41.996251,64.0978896 42.1585634,63.8744857 C42.3208758,63.6510818 42.6335607,63.6015574 42.8569645,63.7638698 C46.6390244,66.5116972 50.702588,66.0710944 50.702588,63.731329 C50.702588,60.7819042 44.0884637,58.4124329 39.3374235,58.9285285 C39.0628961,58.9583498 38.8161727,58.7599764 38.7863513,58.485449 C38.75653,58.2109216 38.9549034,57.9641982 39.2294309,57.9343768 C44.4985901,57.361999 51.702588,59.9427891 51.702588,63.731329 Z M58.0473929,56.0831236 C58.5451908,58.0802909 58.8109135,60.1342073 58.843965,62.202143 C59.4952644,61.8724721 60.2146748,61.6869839 60.9971422,61.6959112 C61.9415719,61.7066863 63.0708756,62.0961771 64.0602946,62.746255 C63.2694058,59.2099416 61.7414349,57.4394016 59.7582818,56.5833742 C59.1374919,56.281584 58.5671956,56.1148338 58.0473929,56.0831236 Z M36.7636224,1.64815815 C32.6000158,1.4859672 28.7147815,1.80463078 25.15775,2.54800722 L25.1579233,2.59956283 C25.1294657,2.86859439 24.8174855,6.19309712 23.7456918,10.3354842 C22.6738981,14.4778713 21.3123606,17.2928446 19.5092924,18.2315988 C17.9122258,19.0630998 15.1705523,19.389066 11.5657802,19.3370982 C9.89459188,19.3130056 8.11029038,19.2071811 6.28679843,19.0408344 C5.76239397,18.9929959 4.84843827,18.8907226 3.54493133,18.7340144 C2.4136409,21.3478494 1.71077465,24.1957832 1.47727176,27.2290046 C0.293002308,42.6127604 14.6959216,55.5776547 35.1585758,56.1459039 C55.1655594,56.701499 69.5753759,45.542817 70.5790573,30.7313857 C71.6065645,15.5683549 58.8250198,2.98747255 38.0221106,1.71135664 L38.0221106,1.71135664 L37.3765892,1.67472265 Z M15.5520999,41.4818307 C16.3251699,38.1303475 19.4159332,36.2338138 25.0222525,36.8230617 C32.3075228,37.5887745 37.0273296,42.1084509 35.8101968,46.3263985 C35.0804049,48.8554766 32.6776104,50.1805018 29.2343012,50.2400352 C29.1797359,50.5566612 29.0978696,50.8754106 28.9887505,51.1923155 C28.1562589,53.6100466 25.9177409,54.4229855 23.5788354,53.6176357 C21.3809219,52.8608334 20.5647497,51.0849625 21.4246019,48.5877702 L21.3839557,48.7078756 C16.9509497,46.9685194 14.9162872,44.2382641 15.5520999,41.4818307 Z M22.3251482,49.0498908 L22.3016296,49.1229689 C21.7276493,50.9827812 22.2981502,52.1190398 23.9044036,52.6721172 C25.7600809,53.3110781 27.4075962,52.7127675 28.0432319,50.8667473 C28.1174298,50.6512612 28.1765076,50.4356979 28.2211447,50.2217557 C26.8177825,50.1520618 25.2684232,49.8922658 23.6094178,49.4395559 C23.1637435,49.3179402 22.7355955,49.1878456 22.3251482,49.0498908 Z M24.917724,37.8175836 C19.786944,37.2783169 17.1788087,38.8787036 16.5265134,41.7065938 C15.9359981,44.2666497 18.3642474,46.971689 23.8726725,48.4748296 C29.7823555,50.0874655 33.9645295,49.1156446 34.8493985,46.0491501 C35.8599574,42.5470803 31.6611905,38.5263505 24.917724,37.8175836 Z M35.1954894,35.4031089 C35.5464902,35.1831741 36.009325,35.289424 36.2292598,35.6404248 C36.2587004,35.6874099 36.3148863,35.7683057 36.3982257,35.8771471 L36.3982257,35.8771471 L36.5436508,36.0606227 C36.8288384,36.4095057 37.1786717,36.7752469 37.5943587,37.1380917 C38.4975298,37.9264515 39.5751085,38.5839993 40.8345296,39.0365253 C42.3135929,39.5679715 43.8136708,39.6018271 45.2396527,39.2912291 C45.6379398,39.2044768 45.9985539,39.09682 46.313622,38.9800277 C46.3867327,38.9529264 46.4501789,38.9281373 46.5034635,38.9064324 L46.5034635,38.9064324 L46.672975,38.8321848 C47.0443142,38.6486633 47.4941175,38.8009196 47.677639,39.1722588 C47.8611604,39.5435979 47.7089041,39.9934013 47.337565,40.1769227 C46.9791373,40.3540631 46.3678403,40.5806643 45.558888,40.756865 C43.8757116,41.1234835 42.0949263,41.0832925 40.3273094,40.4481653 C38.8834212,39.929358 37.6461715,39.1743775 36.6079595,38.2681433 C35.7791208,37.5446668 35.235923,36.8801481 34.9581736,36.4368793 C34.7382387,36.0858785 34.8444887,35.6230437 35.1954894,35.4031089 Z M16.3825939,33.3799612 C16.7210459,33.6187563 16.8018338,34.0867076 16.5630387,34.4251596 C16.2914195,34.8101342 15.8126909,35.3670827 15.1556521,35.9335194 C14.1676604,36.7852724 13.0819406,37.3696356 11.9098433,37.5442544 C10.61447,37.7372388 9.44535914,37.4727411 8.43877999,36.9083858 C7.92019314,36.6176314 7.55136308,36.3132115 7.33985199,36.0875229 C7.05660556,35.7852907 7.07199661,35.3106664 7.37422886,35.02742 C7.67646111,34.7441736 8.15108536,34.7595646 8.43433179,35.0617969 C8.54783559,35.1829087 8.80074926,35.3916552 9.17234895,35.5999987 C9.90522164,36.010896 10.7459369,36.201098 11.6888131,36.0606285 C12.541341,35.9336191 13.3849987,35.4795402 14.1762189,34.797425 C14.4987313,34.5193853 14.7892948,34.2231684 15.0415975,33.9296417 L15.1965667,33.7439239 C15.262093,33.6627334 15.3094235,33.6000517 15.3373955,33.560406 C15.5761906,33.221954 16.0441418,33.1411661 16.3825939,33.3799612 Z M46.2374731,6.51233308 C46.3327683,6.27296089 46.5943557,6.14519145 46.8417354,6.2171879 C47.0891152,6.28918434 53.1319493,7.8548714 57.6070154,12.2482422 C62.0820814,16.641613 65.5640467,24.0762105 64.6507175,28.0589145 C64.6037412,28.2637615 64.4336799,28.4173669 64.2251248,28.4433251 C64.0165696,28.4692832 59.9939737,28.7895196 58.6022899,28.8224238 C56.67537,28.8679828 54.8254595,28.8229292 53.1148056,28.66667 C49.1365143,28.3032742 46.2146632,27.3787162 44.7007922,25.709128 C42.9690389,23.799246 42.7456385,20.2935232 43.5976641,15.6752571 C44.4496897,11.0569909 46.1421779,6.75170528 46.2374731,6.51233308 Z M47.0003901,7.31426904 C46.9328753,7.49646766 45.3798616,11.5269561 44.5810683,15.8566856 C43.7822749,20.1864152 43.9893383,23.4357691 45.441601,25.037412 C46.7385824,26.4678013 49.4587707,27.3285473 53.2057716,27.670816 C54.8747745,27.8232706 56.6874575,27.8674175 58.5786531,27.8227032 C59.4920463,27.8011075 61.2161804,27.6897883 63.7510555,27.4887457 C64.2204269,23.8719647 61.1231472,17.246803 57.1555336,13.2107807 C54.510458,10.5200991 51.1254101,8.55459523 47.0003901,7.31426904 Z M24.1052541,2.98949562 C19.047491,2.27662378 13.3725674,4.51141163 10.6833243,6.36643847 C7.99408127,8.22146531 4.00386617,12.8785636 2.96633697,17.6649332 C5.49143193,18.1072979 9.93702811,18.3135135 11.5801951,18.3372021 C15.0259643,18.3868777 17.643307,18.0756935 19.047491,17.3446155 C20.5026778,16.5869832 21.7768838,13.9525674 22.7775725,10.0849948 C23.2085505,8.41930341 23.813016,5.44386735 24.1052541,2.98949562 Z"/><ellipse cx="29.112" cy="44.75" fill="#FFF" rx="1.785" ry="1.782" transform="rotate(6 29.112 44.75)"/><ellipse cx="21.224" cy="42.591" fill="#FFF" rx="1.785" ry="1.782" transform="rotate(6 21.224 42.591)"/><path fill="#8E2541" fill-rule="nonzero" d="M61.2789666,82.6609426 C61.4439666,82.6609426 61.6352166,82.5859426 61.8527166,82.4359426 C62.0702166,82.2859426 62.1789666,82.1284426 62.1789666,81.9634426 C62.1789666,81.9334426 62.0964666,81.7984426 61.9314666,81.5584426 C61.6314666,81.1834426 61.4814666,79.7884426 61.4814666,77.3734426 C61.4814666,76.5634426 61.5639666,75.5134426 61.7289666,74.2234426 C61.9389666,72.5284426 62.0589666,71.4784426 62.0889666,71.0734426 C62.1039666,70.8034426 62.1939666,70.6534426 62.3589666,70.6234426 C63.2589666,73.6384426 63.9377166,75.8996926 64.3952166,77.4071926 C64.8527166,78.9146926 65.2089666,79.9384426 65.4639666,80.4784426 C66.0939666,81.8434426 66.7764666,82.5259426 67.5114666,82.5259426 C67.9914666,82.5259426 68.3889666,82.0759426 68.7039666,81.1759426 C68.9439666,80.4709426 69.0714666,79.8184426 69.0864666,79.2184426 L69.0864666,79.2184426 L69.1539666,72.4009426 C69.1539666,71.8159426 69.2214666,71.0359426 69.3564666,70.0609426 C69.5214666,68.8309426 69.7089666,68.1559426 69.9189666,68.0359426 C70.0539666,67.9759426 70.1964666,67.9159426 70.3464666,67.8559426 C70.4964666,67.7959426 70.5639666,67.6984426 70.5489666,67.5634426 C70.3089666,67.4134426 70.0764666,67.3384426 69.8514666,67.3384426 C69.2514666,67.3384426 68.7639666,67.9759426 68.3889666,69.2509426 C68.1039666,70.2259426 67.9614666,71.1109426 67.9614666,71.9059426 L67.9614666,71.9059426 L68.0289666,78.6559426 C68.0439666,80.2609426 67.8489666,81.0634426 67.4439666,81.0634426 C66.9789666,81.0634426 66.2289666,79.4734426 65.1939666,76.2934426 C64.3089666,73.5484426 63.7689666,71.5759426 63.5739666,70.3759426 C63.5289666,70.0009426 63.4839666,69.6334426 63.4389666,69.2734426 C63.3789666,68.7184426 63.3189666,68.3884426 63.2589666,68.2834426 C63.0189666,67.8934426 62.5839666,67.6984426 61.9539666,67.6984426 C61.1889666,67.6984426 60.8064666,67.8934426 60.8064666,68.2834426 C60.8064666,68.3134426 60.8177166,68.3621926 60.8402166,68.4296926 L60.8589666,68.4909426 C60.8689666,68.5276093 60.8739666,68.5559426 60.8739666,68.5759426 L60.8739666,68.5759426 L60.8739666,71.4784426 C60.8739666,72.1384426 60.7764666,73.1321926 60.5814666,74.4596926 L60.5347479,74.7844582 C60.3708937,75.9491978 60.2889666,76.8271926 60.2889666,77.4184426 C60.2889666,77.6884426 60.3039666,78.0709426 60.3339666,78.5659426 C60.3639666,79.0609426 60.3789666,79.4434426 60.3789666,79.7134426 C60.3789666,81.6784426 60.6789666,82.6609426 61.2789666,82.6609426 Z M77.358285,83.3134426 C79.323285,83.3134426 80.860785,82.3984426 81.970785,80.5684426 C82.915785,79.0084426 83.388285,77.1709426 83.388285,75.0559426 C83.388285,73.1509426 82.968285,71.4559426 82.128285,69.9709426 C81.123285,68.1859426 79.750785,67.2934426 78.010785,67.2934426 C76.015785,67.2934426 74.448285,68.3284426 73.308285,70.3984426 C72.348285,72.1234426 71.868285,74.0659426 71.868285,76.2259426 C71.868285,79.9309426 73.120785,82.1809426 75.625785,82.9759426 C76.285785,83.2009426 76.863285,83.3134426 77.358285,83.3134426 Z M77.313285,82.1884426 C76.068285,82.1884426 75.100785,81.8284426 74.410785,81.1084426 C73.825785,80.4784426 73.405785,79.5184426 73.150785,78.2284426 C73.030785,77.6134426 72.970785,77.1634426 72.970785,76.8784426 C72.970785,73.7434426 73.758285,71.4259426 75.333285,69.9259426 C76.263285,69.0409426 77.208285,68.5984426 78.168285,68.5984426 C78.348285,68.5984426 78.558285,68.6434426 78.798285,68.7334426 C81.018285,69.4834426 82.128285,71.5234426 82.128285,74.8534426 C82.128285,76.7434426 81.798285,78.3409426 81.138285,79.6459426 C80.298285,81.3409426 79.023285,82.1884426 77.313285,82.1884426 Z M87.5651034,78.7459426 C87.7301034,78.7459426 87.8426034,78.7384426 87.9026034,78.7234426 C88.0526034,78.6034426 88.1576034,78.5134426 88.2176034,78.4534426 C87.9776034,77.4934426 87.8576034,76.9234426 87.8576034,76.7434426 C87.8576034,76.6084426 87.8763534,76.4246926 87.9138534,76.1921926 C87.9513534,75.9596926 87.9701034,75.7984426 87.9701034,75.7084426 C88.1201034,73.1284426 88.4951034,70.7584426 89.0951034,68.5984426 C89.2301034,68.3134426 89.3426034,68.1109426 89.4326034,67.9909426 C89.0876034,67.6459426 88.7276034,67.4734426 88.3526034,67.4734426 C87.9326034,67.4734426 87.5501034,67.6234426 87.2051034,67.9234426 C87.2201034,67.9534426 87.2726034,68.1221926 87.3626034,68.4296926 L87.3984198,68.5539018 C87.4645422,68.7871671 87.4976034,68.929514 87.4976034,68.9809426 L87.4976034,68.9809426 L86.8451034,76.8109426 L86.8451034,76.8109426 L86.8451034,77.0359426 C86.8451034,77.8159426 86.9201034,78.3559426 87.0701034,78.6559426 C87.1901034,78.7159426 87.3551034,78.7459426 87.5651034,78.7459426 Z M87.0026034,82.9309426 C88.1576034,82.9309426 88.7351034,82.4134426 88.7351034,81.3784426 C88.7351034,80.9284426 88.1426034,80.7034426 86.9576034,80.7034426 C86.5076034,80.7034426 86.1926034,80.7634426 86.0126034,80.8834426 C85.7576034,81.0334426 85.6301034,81.3334426 85.6301034,81.7834426 C85.6301034,82.0534426 85.6901034,82.3009426 85.8101034,82.5259426 C86.3951034,82.7959426 86.7926034,82.9309426 87.0026034,82.9309426 Z" transform="rotate(-27 74.86 75.303)"/></g></g></svg>