<svg xmlns="http://www.w3.org/2000/svg" width="100" height="100" viewBox="0 0 100 100"><g fill="none" fill-rule="evenodd" transform="translate(-600 -600)"><g transform="translate(604 597.234)"><path fill="#FB8CB1" d="M11.7975854,61.6724655 C11.7975854,61.6724655 13.7605023,55.822398 22.4612992,58.2685812 C16.8152758,60.77486 19.6373024,65.382019 19.6373024,65.382019 L11.7975854,61.6724655 Z" transform="scale(-1 1) rotate(60 0 31.857)"/><path fill="#FDC5D8" d="M11.6422117,64.5149843 C13.8741533,55.7567816 19.9219188,56.9818794 19.9219188,56.9818794 L19.9219188,56.9818794 L19.8432593,57.9317252 C18.20292,58.0184814 15.0796033,58.8478629 13.2536618,63.5792976 C12.7484213,63.7953587 12.2109795,64.1007866 11.6422117,64.5149843 Z"/><path fill="#FFF2EE" d="M21.4522057,47.874615 C6.05237808,62.0491601 11.7557095,84.3082383 28.6244438,92.45809 C37.2306522,96.6160382 51.0819262,95.715353 56.2446505,89.4431925 C56.6157796,88.9923101 62.707903,88.5941104 62.5163348,86.5186581 C62.3247666,84.4432058 57.938117,86.2438775 57.938117,86.2438775 C57.938117,86.2438775 60.1888321,81.9004998 57.4590948,81.0928343 C54.7293575,80.2851689 55.3811773,87.5094231 54.7935894,87.6851534 C47.9923042,89.719218 40.2564003,85.8706924 51.7619107,73.9214587 C59.8480463,65.5234719 55.6867784,52.9881222 50.0383967,48.8006344 L21.4522057,47.874615 Z" transform="matrix(-1 0 0 1 74.986 0)"/><g transform="rotate(8 .537 56.688)"><path fill="#FFF2EE" d="M39.6724387,54.5541604 C68.5248052,54.5541604 77.177007,40.6320497 77.2714892,27.7954737 C77.3659715,14.9588978 64.9845906,1.05682923 39.6424086,1.36750888 C14.3002266,1.67818853 1.48635007,15.2876569 1.69347579,27.3588337 C1.90060151,39.4300105 10.8200721,54.5541604 39.6724387,54.5541604 Z" transform="rotate(2 39.482 27.958)"/><path fill="#FB8CB1" d="M55.6043109,3.63765804 C55.6043109,3.63765804 62.3390001,1.88097238 68.1574515,5.37674794 C73.9759028,8.8725235 74.6544872,13.8185728 74.9162067,17.7641847 C74.9162067,17.7641847 63.1665755,21.4493211 58.7668074,18.5584896 C54.3670393,15.6676581 55.6043109,3.63765804 55.6043109,3.63765804 Z"/><path fill="#FB8CB1" d="M10.5654532,6.69539488 C2.98841207,11.0965556 2.95268044,17.0567298 2.95268044,17.0567298 C2.95268044,17.0567298 13.4670526,22.0808611 18.2830961,19.3414473 C23.0991395,16.6020335 24.0830849,4.43958647 24.0830849,4.43958647 C24.0830849,4.43958647 18.1424944,2.29423415 10.5654532,6.69539488 Z" transform="rotate(-3 13.518 12.038)"/><path fill="#FB8CB1" d="M39.3572127,50.0151607 C47.7245349,50.6002608 48.8545172,47.6277505 49.0046795,45.4803291 C49.1548419,43.3329076 47.5538297,38.8872792 40.1262906,38.3678951 C32.6987516,37.848511 29.7311288,40.2747511 29.5150626,43.364642 C29.2989964,46.4545328 30.9898904,49.4300605 39.3572127,50.0151607 Z" transform="rotate(-4 39.256 44.194)"/><path fill="#FDC5D8" d="M68.1574515 5.37674794C73.9759028 8.8725235 74.6544872 13.8185728 74.9162067 17.7641847 74.9162067 17.7641847 74.580194 17.8695712 74.0005361 18.0307203 73.6797364 14.2465608 72.707838 9.75144558 67.3063565 6.50618911 62.6736288 3.72280652 57.4600472 4.26925026 55.5275216 4.60755761 55.5673273 3.9972498 55.6043109 3.63765804 55.6043109 3.63765804 55.6043109 3.63765804 62.3390001 1.88097238 68.1574515 5.37674794zM10.2898982 6.85723471C17.4072218 2.20858918 23.3089143 3.79361771 23.6549122 3.89238854L23.6709445 3.89705963C23.6709445 3.89705963 23.6645137 4.12371803 23.6415855 4.52280777 21.5463256 4.24311851 16.834713 4.17130453 11.4193394 7.70832968 5.24000827 11.74433 4.4614728 16.6048589 4.36960094 18.0375544 3.65309269 17.7784602 3.22982884 17.6027916 3.22982884 17.6027916 3.22982884 17.6027916 2.95358009 11.6489155 10.2898982 6.85723471zM39.7177777 38.3213617C43.3570244 38.3213617 45.6731392 39.3541511 47.0901317 40.6614918 45.6639277 39.7838129 43.6471851 39.1724566 40.8472189 39.1724566 33.4015426 39.1724566 30.6103947 41.7997975 30.6103947 44.8972335 30.6103947 46.2152293 30.9533841 47.4884837 31.9936912 48.5164359 30.0597274 47.3948323 29.4809535 45.7582346 29.4809535 44.0461386 29.4809535 40.9487025 32.2721014 38.3213617 39.7177777 38.3213617z"/></g><path fill="#FFF2EE" d="M28.1522488,59.077445 C29.5122925,57.5594757 30.7464984,50.1346491 25.8707638,49.9681631 C20.9950293,49.8016772 19.417415,61.451156 24.7581447,65.9266654 L28.1522488,59.077445 Z"/></g><g transform="translate(609 603.234)"><path fill="#A95F78" fill-rule="nonzero" d="M24.8449289,0.774240306 C30.2712099,-0.0840885432 36.3829329,-0.0707977161 42.9576113,1.0055672 C48.3578391,1.88965847 53.1909744,3.37421689 57.3884964,5.32145013 C57.6012055,5.29706064 58.2833947,5.26286193 58.6141502,5.25912848 C61.6964939,5.22433612 64.9808319,5.85185022 67.9359178,7.52552732 C68.646165,7.9277913 69.3205751,8.38455602 69.9551895,8.89841645 C74.5014008,12.5795781 75.5551503,16.4519057 75.1081796,22.5311843 C75.0985144,22.6626422 75.0381857,22.7805399 74.9458307,22.8645287 C76.2161225,26.48451 76.5440027,30.3077252 75.8374255,34.1502364 C73.9783667,44.2557483 67.6639072,51.4178907 56.9547767,54.2227591 C60.6100729,66.6639728 54.7253277,80.5704175 41.6070458,86.9082997 L41.2482437,87.0775944 C32.2191858,91.2375047 18.8203393,90 13.4111405,83.796986 C12.9919264,83.6642632 12.0496965,83.4480832 10.5844509,83.1484461 C8.38658247,82.6989903 6.87848964,81.7865448 6.9997598,80.4727024 C7.11894743,79.1814223 8.25391866,78.8403354 9.86226628,79.0968353 C10.5085749,79.2337132 10.9444789,79.3354348 11.1699782,79.402 C10.9484646,78.6760571 10.8154935,78.1735789 10.7710648,77.8945654 C10.5128188,76.2727733 10.9710307,75.0400327 12.4130242,74.6133805 C13.3444712,74.3377871 14.0792108,74.7467992 14.5465297,75.639741 C14.8799577,76.2768474 15.0875181,77.1452432 15.232984,78.2964517 C15.37845,79.4476601 15.2630678,80.1333275 15.5489782,81.259 C18.9814279,82.0965464 22.0337447,81.6524397 23.1746847,79.7862375 C24.5493052,77.5378109 22.9960602,73.5692799 17.8918899,68.2682614 C15.4741828,65.7573126 14.0688751,62.6745795 13.5241929,59.4794447 C13.4742048,59.410341 13.4160485,59.3357434 13.3513165,59.2571458 C12.6254113,58.3757516 11.6953343,57.7635302 10.5748387,57.6577704 C9.49453823,57.5558045 8.28768731,57.9357415 6.94000496,58.9171736 C6.56139153,59.1928938 6.04548724,58.8433806 6.16114984,58.3895172 C7.32154527,53.8360924 9.57675629,51.428023 12.3886798,50.6616277 C13.0675489,50.4766006 13.6806782,50.4090897 14.1890482,50.411631 C14.440617,49.6268602 14.7424278,48.8642283 15.0908199,48.1324257 C11.1496309,45.8829056 7.98091065,43.1848036 5.57169893,40.0942691 C1.02387613,34.2603263 -0.584020654,27.2411971 0.497259383,20.42733 C0.931645585,17.6899727 1.94318576,15.1366587 3.46115781,12.828246 L3.38967842,12.7885764 C3.22285373,12.6901518 3.12788368,12.5042299 3.14586981,12.3113718 C3.19427297,11.7944329 3.4001137,10.9370411 3.87256906,9.86660956 C4.65179617,8.10113207 5.91519084,6.38253458 7.76801817,4.84375006 C8.94209831,3.86866926 10.3207211,2.99691398 11.918105,2.24693162 C16.8850687,-0.0850908306 21.3575214,-0.240572239 24.9386906,0.800947956 Z M20.0792902,59.5434349 C20.2909425,59.7207987 20.3187389,60.0361585 20.1413751,60.2478109 C19.9640113,60.4594632 19.6486515,60.4872595 19.4369992,60.3098958 C16.3669002,57.7371656 15.4144726,52.6491149 16.1860738,48.7353136 C16.1126155,48.6971048 16.0395664,48.6580256 15.9667668,48.6188006 C13.2652223,54.3496711 13.569471,62.0990292 18.3772202,67.3249498 L19.1954648,68.1910416 C24.1194267,73.489599 25.6505984,77.6535961 24.0278683,80.3078483 C22.5994377,82.6442905 18.8594795,83.2953805 15.0771234,82.1641889 C14.6663185,82.0413292 14.5767501,81.8599018 14.4789733,80.903747 C14.3458637,79.4519109 14.2664969,78.6246 14.240873,78.4218142 C14.1092387,77.3800687 13.9247904,76.6083693 13.6605299,76.1034267 C13.3971294,75.6001272 13.1214079,75.4466396 12.6967426,75.5722881 C11.8398742,75.8258155 11.569901,76.5521321 11.758623,77.7373116 C11.8726836,78.4536159 12.312046,79.6043541 12.5217461,80.0176328 C12.7314462,80.4309115 12.3147129,80.8824096 11.8859909,80.706424 C11.457269,80.5304383 10.8127842,80.2610614 9.70477611,80.0843558 C8.59676802,79.9076503 8.04074239,80.0747497 7.99552701,80.5646137 C7.94576036,81.1037861 8.82937952,81.639564 10.5275834,82.1004877 C12.2257872,82.5614114 13.6968526,82.7954495 13.9876224,82.9798484 C14.0507187,83.0198624 14.1065853,83.0661644 14.1553709,83.1254336 C18.9715219,88.9765446 32.4026449,90.2446612 41.172023,86.0078803 C53.8536085,79.8809807 59.5288538,66.4621327 55.9803604,54.4625591 C49.8719071,55.8783939 42.4031565,55.9303317 33.5838144,54.3752438 C30.2159467,53.7813978 27.1053302,53.0189899 24.2494888,52.0983273 C24.043296,52.6502992 23.79565,53.1086194 23.5246425,53.4110958 C23.3403722,53.6167632 23.0242653,53.634109 22.8185979,53.4498387 C22.6129305,53.2655684 22.5955847,52.9494615 22.779855,52.7437941 C23.4160676,52.0337058 23.9657836,49.8609845 23.8509231,48.0476047 C23.7115273,45.8468675 22.7410253,44.5323161 20.8537009,44.4678719 C16.3411584,44.3137874 15.2513578,55.4976476 20.0792902,59.5434349 Z M51.3944921,56.6012407 C51.6380535,56.4711159 51.940986,56.5630743 52.0711109,56.8066356 C54.2080359,60.8064272 52.0393007,70.3403463 47.8254971,70.4842301 L47.8254971,70.4842301 L47.5950107,70.4875108 C45.247226,70.4730463 43.9508148,68.9660417 43.7287124,66.5949069 C43.5521517,64.7099678 44.1103059,62.3768338 44.9564877,61.1240392 C45.1110504,60.8952051 45.4218547,60.8349962 45.6506888,60.9895589 C45.8795228,61.1441215 45.9397317,61.4549258 45.7851691,61.6837599 C45.0717204,62.7400394 44.5688889,64.8419198 44.7243541,66.501646 C44.9083075,68.465507 45.8841827,69.5499351 47.7913711,69.4848126 C51.0646587,69.3730435 53.0315457,60.7264641 51.1890972,57.2778595 C51.0589723,57.0342981 51.1509308,56.7313656 51.3944921,56.6012407 Z M13.8920822,51.4287518 L13.7247396,51.4385 C13.3797614,51.4656739 13.0199392,51.5260537 12.6516398,51.6264344 L12.6516398,51.6264344 L12.4362265,51.6892773 C10.365722,52.3336587 8.64136989,54.0526203 7.54653881,57.2350496 L7.54653881,57.2350496 L7.49499898,57.3887377 L7.68203881,57.2923392 C8.72714289,56.7735063 9.72470266,56.5730844 10.6688076,56.6621953 C11.6940519,56.7589646 12.57637,57.1774402 13.3183309,57.8022453 C13.1499909,55.6472314 13.3567999,53.4763071 13.8920822,51.4287518 Z M42.7960484,1.99242962 C36.8360795,1.01670107 31.277691,0.927116803 26.2882002,1.57238702 C26.2954774,1.61874741 26.2944533,1.66634378 26.2863637,1.71404519 C26.2653079,1.83820273 25.8637372,3.74884694 25.7721338,4.12649844 C25.335653,5.92596882 24.795477,7.71699017 24.1448026,9.37987333 C22.7450591,12.9571 21.0345734,15.4573942 18.925093,16.4245997 C17.1836992,17.223036 14.8533128,17.1690812 12.0810148,16.4533179 C10.5090105,16.0474513 8.85432126,15.4428273 7.17685162,14.698832 C6.31829753,14.3180441 5.3748242,13.8542955 4.34643162,13.3075861 C2.87588124,15.5202789 1.90031809,17.9662389 1.48490133,20.5840571 C0.44560422,27.1333617 1.98930715,33.8722584 6.36037511,39.4794603 C8.85579586,42.6805837 12.2048347,45.4546811 16.4290876,47.7327586 C17.1429187,45.2839202 18.604424,43.4997471 20.6980635,43.4666852 L20.8878268,43.4684544 C23.3728067,43.553306 24.680445,45.3245107 24.8489232,47.9843909 C24.9146647,49.0222968 24.790769,50.1552617 24.5441287,51.143595 C27.3567484,52.0504187 30.427113,52.8032055 33.7574626,53.390436 L33.2739057,53.3045599 C32.7259252,53.0194571 32.3901364,52.4113219 32.4810048,51.7647598 C32.5962996,50.9443949 33.3548017,50.3728226 34.1751666,50.4881174 C34.9955315,50.6034121 35.5671038,51.3619142 35.451809,52.1822791 C35.3558846,52.8648172 34.8147238,53.3751378 34.1631325,53.4609468 C58.5295397,57.640334 72.0245596,49.3491362 74.8538937,33.9693395 C75.5340923,30.2702864 75.208733,26.5825672 73.9617693,23.0856492 C73.581939,23.1353317 73.0572847,23.2020944 72.3887049,23.2863419 C70.8598843,23.44864 69.2889558,23.5528852 67.7477464,23.5719122 C63.3562139,23.6261279 59.9878638,23.0006425 58.1767013,21.4091284 C56.5105859,19.9450709 55.8549525,17.1818595 55.9326148,13.5103064 C55.9802209,11.2596829 56.2962599,8.90811178 56.7367222,6.7424816 C56.7665109,6.59601879 56.8129546,6.37825718 56.85788,6.17354252 C52.7720052,4.29298117 48.0637837,2.85483006 42.7960484,1.99242962 Z M25.4633814,42.1278531 C25.9993393,38.3143149 29.9963571,36.4789699 36.9620371,37.4579324 C43.3165685,38.3510035 46.2604486,42.0923039 45.7482078,45.7370865 C45.2462231,49.3088938 42.3869556,51.0174369 35.2431873,50.0134457 C27.7070841,48.9543155 24.884994,46.2432934 25.4633814,42.1278531 Z M36.822864,38.4482005 C30.3364775,37.5365983 26.8964728,39.1161748 26.4536495,42.2670262 C25.9636822,45.7533242 28.3367325,48.0329792 35.3823604,49.0231776 C42.020589,49.9561198 44.3402369,48.5700241 44.7579398,45.5979134 C45.1919851,42.5095207 42.6395366,39.2656805 36.822864,38.4482005 Z M48.9766063,37.2151949 C49.2456275,35.3010101 50.5721075,33.9050314 51.9393823,34.0971894 C53.3066572,34.2893474 54.1969678,35.9968756 53.9279467,37.9110604 C53.6589255,39.8252452 52.3324455,41.2212238 50.9651706,41.0290659 C49.5978958,40.8369079 48.7075852,39.1293797 48.9766063,37.2151949 Z M19.2685643,33.0400019 C19.5375854,31.125817 20.8640654,29.7298384 22.2313403,29.9219964 C23.5986152,30.1141543 24.4889257,31.8216825 24.2199046,33.7358674 C23.9508835,35.6500522 22.6244035,37.0460308 21.2571286,36.8538729 C19.8898537,36.6617149 18.9995431,34.9541867 19.2685643,33.0400019 Z M52.8844383,28.4565747 C54.1132652,28.6292751 55.1184887,29.3779114 55.9207986,30.4846078 C56.1944276,30.8620484 56.4249644,31.2560012 56.614782,31.6445245 C56.7534649,31.953742 56.8308826,32.1305577 56.847035,32.1749715 C56.9414149,32.4344846 56.8075479,32.7213716 56.5480348,32.8157514 C56.2885217,32.9101313 56.0016348,32.7762643 55.9072549,32.5167512 C55.8193471,32.3085758 55.7556893,32.1641579 55.7162817,32.0834973 C55.5503468,31.7438577 55.3484655,31.3988729 55.1111725,31.0715538 C54.453705,30.1646513 53.6630749,29.5758325 52.7452652,29.4468428 C51.8274554,29.317853 50.9051525,29.6659348 50.023178,30.3564828 C49.704856,30.6057153 49.4157045,30.88169 49.1625803,31.1624347 C48.9804778,31.3775909 48.8794791,31.4988678 48.8595841,31.5262657 C48.6973289,31.7497111 48.3846567,31.7993155 48.1612113,31.6370602 C47.9377659,31.474805 47.8881615,31.1621329 48.0504167,30.9386875 C48.2265989,30.7192151 48.3497545,30.5705882 48.4198837,30.4928067 C48.7094396,30.1716549 49.0396339,29.8565077 49.4066997,29.569111 C50.4829763,28.7264327 51.6556113,28.2838744 52.8844383,28.4565747 Z M23.1763962,24.2813817 C24.4052232,24.4540821 25.4104466,25.2027184 26.2127565,26.3094148 C26.4863855,26.6868553 26.7169223,27.0808081 26.90674,27.4693315 C27.0454228,27.778549 27.1228405,27.9553647 27.138993,27.9997785 C27.2333728,28.2592916 27.0995058,28.5461785 26.8399927,28.6405584 C26.5804796,28.7349382 26.2935927,28.6010713 26.1992128,28.3415582 C26.111305,28.1333828 26.0476472,27.9889649 26.0082396,27.9083043 C25.8423047,27.5686647 25.6404234,27.2236799 25.4031304,26.8963608 C24.745663,25.9894583 23.9550329,25.4006395 23.0372231,25.2716498 C22.1194133,25.14266 21.1971104,25.4907417 20.315136,26.1812898 C19.9968139,26.4305223 19.7076625,26.706497 19.4545383,26.9872416 C19.2724358,27.2023978 19.171437,27.3236748 19.151542,27.3510726 C18.9892868,27.574518 18.6766146,27.6241225 18.4531692,27.4618672 C18.2297238,27.299612 18.1801194,26.9869398 18.3423747,26.7634944 C18.5185568,26.5440221 18.6417125,26.3953951 18.7118416,26.3176137 C19.0013975,25.9964618 19.3315918,25.6813147 19.6986577,25.3939179 C20.7749343,24.5512396 21.9475692,24.1086813 23.1763962,24.2813817 Z M59.0439961,6.2586692 L58.6254372,6.25906478 C58.5216304,6.26023651 58.2651748,6.26920355 57.8560704,6.28596589 L57.8560704,6.28596589 L57.5781553,7.65216645 C57.2217916,9.56251873 56.9734106,11.5922198 56.9323911,13.5314541 C56.8604649,16.931829 57.4568555,19.4453576 58.8367893,20.6579401 C60.401982,22.0333144 63.5791562,22.6232993 67.7354018,22.5719884 C69.2427421,22.5533795 70.7833336,22.4511475 72.283139,22.2919296 C72.6351765,22.2545576 73.2531782,22.1773707 74.1371441,22.0603688 L74.1371441,22.0603688 L74.1582931,21.7156263 C74.4392465,16.4841872 73.4300692,13.1159031 69.5978617,9.89974433 C68.6033683,9.14736584 67.8851142,8.64600425 67.4430994,8.39565956 C64.6642645,6.82180597 61.5463767,6.22609429 58.6254372,6.25906478 Z M24.6594289,1.76116299 C21.2990418,0.783853401 17.0744705,0.930717399 12.3431004,3.15212716 C10.8218492,3.86636468 9.51518292,4.69261915 8.40691812,5.6130399 C6.67664815,7.05003978 5.50584156,8.64268956 4.78742179,10.2703972 C4.62101476,10.6474219 4.42223272,11.2555933 4.19107568,12.0949114 C5.94766897,12.9978124 7.07807244,13.5610779 7.58228609,13.7847079 C9.21312472,14.5080213 10.8179288,15.0944173 12.3310014,15.4850686 C14.9015339,16.1487393 17.0204204,16.1977973 18.50831,15.5155937 C20.3162192,14.6866598 21.9007964,12.3704118 23.2135562,9.01548321 C23.8460589,7.39904033 24.373683,5.64963619 24.800314,3.89077317 C24.8999252,3.48010815 25.0421369,2.83074251 25.2269491,1.94267625 L25.2269491,1.94267625 Z"/><circle cx="39.262" cy="44.762" r="1.764" fill="#FFF" transform="rotate(4 39.262 44.762)"/><circle cx="31.384" cy="43.373" r="1.764" fill="#FFF" transform="rotate(4 31.384 43.373)"/><path fill="#8E2541" fill-rule="nonzero" d="M77.30742,66.249329 C77.47242,66.249329 77.58492,66.241829 77.64492,66.226829 C77.79492,66.106829 77.89992,66.016829 77.95992,65.956829 C77.71992,64.996829 77.59992,64.426829 77.59992,64.246829 C77.59992,64.111829 77.71242,63.301829 77.71242,63.211829 C77.86242,60.631829 78.23742,58.261829 78.83742,56.101829 C78.97242,55.816829 79.08492,55.614329 79.17492,55.494329 C78.82992,55.149329 78.46992,54.976829 78.09492,54.976829 C77.67492,54.976829 77.29242,55.126829 76.94742,55.426829 C76.96242,55.456829 77.23992,56.4329004 77.23992,56.484329 L76.58742,64.314329 L76.58742,64.539329 C76.58742,65.319329 76.66242,65.859329 76.81242,66.159329 C76.93242,66.219329 77.09742,66.249329 77.30742,66.249329 Z M76.74492,70.434329 C77.89992,70.434329 78.47742,69.916829 78.47742,68.881829 C78.47742,68.431829 77.88492,68.206829 76.69992,68.206829 C76.24992,68.206829 75.93492,68.266829 75.75492,68.386829 C75.49992,68.536829 75.37242,68.836829 75.37242,69.286829 C75.37242,69.556829 75.43242,69.804329 75.55242,70.029329 C76.13742,70.299329 76.53492,70.434329 76.74492,70.434329 Z M82.9917384,66.249329 C83.1567384,66.249329 83.2692384,66.241829 83.3292384,66.226829 C83.4792384,66.106829 83.5842384,66.016829 83.6442384,65.956829 C83.4042384,64.996829 83.2842384,64.426829 83.2842384,64.246829 C83.2842384,64.111829 83.3967384,63.301829 83.3967384,63.211829 C83.5467384,60.631829 83.9217384,58.261829 84.5217384,56.101829 C84.6567384,55.816829 84.7692384,55.614329 84.8592384,55.494329 C84.5142384,55.149329 84.1542384,54.976829 83.7792384,54.976829 C83.3592384,54.976829 82.9767384,55.126829 82.6317384,55.426829 C82.6467384,55.456829 82.9242384,56.4329004 82.9242384,56.484329 L82.2717384,64.314329 L82.2717384,64.539329 C82.2717384,65.319329 82.3467384,65.859329 82.4967384,66.159329 C82.6167384,66.219329 82.7817384,66.249329 82.9917384,66.249329 Z M82.4292384,70.434329 C83.5842384,70.434329 84.1617384,69.916829 84.1617384,68.881829 C84.1617384,68.431829 83.5692384,68.206829 82.3842384,68.206829 C81.9342384,68.206829 81.6192384,68.266829 81.4392384,68.386829 C81.1842384,68.536829 81.0567384,68.836829 81.0567384,69.286829 C81.0567384,69.556829 81.1167384,69.804329 81.2367384,70.029329 C81.8217384,70.299329 82.2192384,70.434329 82.4292384,70.434329 Z" transform="rotate(24 80.116 62.706)"/></g></g></svg>