<svg id="SvgjsSvg1031" width="288" height="288" xmlns="http://www.w3.org/2000/svg" version="1.1" xmlns:xlink="http://www.w3.org/1999/xlink" xmlns:svgjs="http://svgjs.com/svgjs"><circle id="SvgjsCircle1049" r="144" cx="144" cy="144" fill="#87ddfd" transform="matrix(0.9167,0,0,0.9167,11.995200000000011,11.995200000000011)"></circle><defs id="SvgjsDefs1032"></defs><g id="SvgjsG1033" transform="matrix(0.71,0,0,0.71,40.92479803085328,41.5264314031601)"><svg xmlns="http://www.w3.org/2000/svg" width="288" height="288" viewBox="0 0 100 100"><g fill="#ff6699" fill-rule="evenodd" transform="translate(6 1.234)" class="color000 svgShape"><path fill-rule="nonzero" d="M43.8046816,0.0300147919 C67.0137775,-0.254514525 82.0509439,11.8719367 81.9404889,26.9616222 C81.8538754,38.6695086 75.4066141,47.6183134 62.3239404,51.7323463 C62.499105,52.0456522 62.668683,52.3645109 62.831743,52.687079 C65.7214967,58.4036374 66.1527197,64.2694236 63.4316768,68.7591506 C61.5885058,71.8003869 59.7913223,74.270727 57.694518,76.780243 C57.3109638,77.2392917 55.1092711,79.6119927 53.2814567,81.9673493 C51.4536422,84.3227059 50.3716087,86.7235352 50.022,89.186 C50.0763368,89.2369314 50.8697477,89.7785155 52.4022327,90.8107523 C54.3028411,92.1774859 55.1840482,93.4489571 54.6638294,94.9575918 C54.1436105,96.4662264 52.4757842,97.2461411 49.18,94.661 C48.0267552,95.7710624 46.3838052,96.5805618 45.6412515,96.7902557 C44.524491,97.1056239 43.530627,96.9600214 42.7709582,96.2338725 C41.8895622,95.3913676 42.0383225,94.2911478 42.9033391,93.0908402 C43.1651113,92.7276019 44.3356649,91.5936552 46.415,89.689 L46.415,89.689 L46.1241514,89.2214965 C44.5460309,86.7560918 41.3097231,84.0584445 39.8996413,83.1598368 C38.9595869,82.5607649 35.7399268,80.5693946 30.2406613,77.1857259 C24.8854871,73.6040907 21.174782,66.759301 20.9908598,59.9861418 C20.8997099,56.6294348 21.6487157,53.508682 23.2244383,50.7785327 C19.5276267,49.3014443 16.3786588,47.366833 13.7744271,45.016867 C8.28264241,40.061276 5.48031419,33.4279915 5.36195155,26.5298801 C5.11887899,12.3637402 20.5638037,0.314933736 43.8046816,0.0300147919 Z M24.169872,51.1439005 L24.1219587,51.2238643 C22.6735143,53.7105273 21.9597794,56.5415197 21.9840378,59.5919058 L21.9840378,59.5919058 L21.9904914,59.9589973 C22.1656869,66.4107861 25.7132714,72.9546826 30.7965987,76.3545018 C33.2511372,77.9961405 37.8610425,80.5989841 40.8191201,82.567292 C43.7771978,84.5355999 45.6347104,86.4137121 47.4324878,89.4386088 C47.6305101,89.7717963 47.517113,89.9759708 47.2370681,90.2799175 C47.1209762,90.4059179 46.9593258,90.5556008 46.7163343,90.7666935 C46.4733429,90.9777862 44.3237536,92.8302555 43.7146185,93.6754988 C43.1054834,94.5207422 43.0277121,95.0959325 43.4619369,95.5109974 C43.934529,95.9627367 44.5649391,96.0550927 45.3694844,95.8278926 C45.9897523,95.6527317 46.6712732,95.2965161 47.3706458,94.8122816 C47.7416484,94.5554053 48.6257324,93.8261914 48.8126504,93.6429513 C48.9995685,93.4597112 49.2961753,93.4516456 49.4927754,93.6244567 C49.6893755,93.7972678 50.9949791,94.8116542 51.9524906,95.1697491 C52.9100022,95.527844 53.4566537,95.3908289 53.7184564,94.6316011 C54.0544039,93.6573534 53.32195,92.6661964 51.6158366,91.4794051 C51.4329756,91.3522049 50.8245627,90.9507294 49.790598,90.2749784 C49.1687801,89.8410951 48.9414325,89.5866658 49.0125355,89.1568559 C49.525174,86.0580114 50.5666019,83.834647 52.4914337,81.3542721 C52.6817318,81.1090503 54.1602974,79.370646 56.9271306,76.1390592 C58.9931999,73.6663278 60.7610591,71.2362959 62.5764787,68.2408494 C65.092952,64.0886627 64.6876155,58.5750021 61.93929,53.1382192 C61.7492716,52.7623218 61.550044,52.3917616 61.3426802,52.0275693 C58.7173067,52.7867144 55.8359658,53.3581045 52.6977539,53.7264642 L53.8575004,57.8649833 C53.9469322,58.1838578 53.7072542,58.500004 53.376076,58.500004 L53.376076,58.500004 L33.7686756,58.500004 C33.4261072,58.500004 33.184993,58.1633065 33.2953114,57.8389873 L33.2953114,57.8389873 L34.716834,53.6574382 C30.8243256,53.1506526 27.309146,52.3050677 24.169872,51.1439005 Z M24.2545822,54.7508116 C24.3944447,54.5127085 24.7008464,54.4330689 24.9389495,54.5729315 C25.1770526,54.712794 25.2566922,55.0191957 25.1168296,55.2572988 C23.1887144,58.539736 25.6643066,64.5519136 29.4238513,64.011852 C30.5129661,63.8553998 30.9343775,63.5324451 31.0066738,63.0161134 C31.064058,62.6062826 30.9780297,62.2034107 30.6254614,61.1793517 L30.6254614,61.1793517 L30.1637985,59.8233615 C29.7534276,58.4736635 29.7275702,57.4711582 30.2684683,56.5845623 C30.4122865,56.3488274 30.7199751,56.2743142 30.95571,56.4181323 C31.1914449,56.5619505 31.2659581,56.869639 31.12214,57.1053739 C30.7662108,57.6887838 30.7853267,58.4299153 31.1205527,59.5324638 L31.1205527,59.5324638 L31.500218,60.6498299 C31.9761841,62.0080751 32.0892128,62.4962991 31.997013,63.1547798 C31.8542154,64.1746237 31.0538959,64.7879599 29.5660425,65.0016912 C24.840276,65.6805513 21.9531151,58.6688457 24.2545822,54.7508116 Z M62.2197148,54.7508116 C64.5211818,58.6688457 61.634021,65.6805513 56.9082544,65.0016912 C55.420401,64.7879599 54.6200816,64.1746237 54.477284,63.1547798 C54.3850841,62.4962991 54.4981128,62.0080751 54.9740789,60.6498299 L55.3537443,59.5324638 C55.6889702,58.4299153 55.7080861,57.6887838 55.352157,57.1053739 C55.2083388,56.869639 55.2828521,56.5619505 55.518587,56.4181323 C55.7543219,56.2743142 56.0620104,56.3488274 56.2058286,56.5845623 C56.7467268,57.4711582 56.7208693,58.4736635 56.3104984,59.8233615 L55.8488355,61.1793517 C55.4962672,62.2034107 55.410239,62.6062826 55.4676231,63.0161134 C55.5399194,63.5324451 55.9613308,63.8553998 57.0504456,64.011852 C60.8099903,64.5519136 63.2855825,58.539736 61.3574673,55.2572988 C61.2176047,55.0191957 61.2972444,54.712794 61.5353474,54.5729315 C61.7734505,54.4330689 62.0798522,54.5127085 62.2197148,54.7508116 Z M37.54369,48.4550636 L34.4676525,57.5007625 L52.7166525,57.5007625 L50.255554,48.7197181 C48.3824111,49.4481249 45.9212644,49.7565051 43.0406945,49.5916318 C40.844819,49.4659479 39.0014238,49.0661148 37.54369,48.4550636 Z M44.4952002,1.02518619 L43.81694,1.02993965 C21.0790046,1.30869283 6.12944694,12.9710564 6.36180437,26.5127239 C6.47557134,33.143002 9.16601907,39.5114584 14.4443611,44.2744464 C19.3046251,48.6601756 26.1588789,51.5662951 35.0460903,52.6919812 L36.6348799,48.0201046 C34.630694,46.9270668 33.5812769,45.3546288 33.6122806,43.5411021 C33.6704968,40.135803 36.2701147,37.6626438 41.8125076,37.0801148 C49.0141269,36.3231941 54.5082392,39.7293386 54.1987621,44.065408 C54.0665105,45.9183788 52.9867541,47.3537309 51.1765237,48.3029396 L52.4257291,52.7542579 C71.5940415,50.5635197 80.838384,40.7567904 80.9404867,26.954262 C81.0464664,12.4765827 66.507343,0.751769196 43.81694,1.02993965 Z M53.2012994,43.9942164 C53.4577771,40.4007195 48.5767606,37.3746715 41.9170361,38.0746367 C36.8504462,38.6071568 34.6611696,40.6899358 34.6121345,43.5581954 C34.5677543,46.1541702 37.4679635,48.2710324 43.0978373,48.5932658 C49.137949,48.9389797 52.9767588,47.1402444 53.2012994,43.9942164 Z M65.3837195,32.5161738 C65.7171695,32.5383109 65.9010185,32.5515726 65.9352665,32.5559589 C66.346124,32.6085799 66.6365321,32.9843035 66.5839111,33.395161 C66.5356752,33.7717804 66.2159434,34.0471888 65.8465248,34.0499433 L65.6519371,34.0493069 C65.1358486,34.0453508 64.0508788,34.0323698 63.279432,34.1610438 C61.9836602,34.3771728 60.4098193,34.87134 59.123,35.79 C61.1575883,35.2629648 63.6532391,35.2629648 65.7163102,35.7283956 C66.6294043,35.9710305 67.2129745,36.1464661 67.4670208,36.2547024 C67.8480902,36.4170569 68.0253937,36.857589 67.8630392,37.2386584 C67.7142143,37.587972 67.3316428,37.7660657 66.975394,37.6682679 C66.6191451,37.5704701 66.0323142,37.3489091 65.6965769,37.2652857 C62.7443302,36.5299574 59.5300627,36.7270194 56.4878147,38.4916979 L56.1397765,38.7009378 C55.4431047,39.1347541 54.6557884,38.2951446 55.1334483,37.6277698 C56.1595014,36.1941933 57.3779001,35.078431 58.7466885,34.2522085 C61.0299825,32.8739758 63.3920666,32.4324958 65.3837195,32.5161738 Z M21.526821,32.5161738 C23.518474,32.4324958 25.880558,32.8739758 28.163852,34.2522085 C29.5326404,35.078431 30.7510391,36.1941933 31.7770923,37.6277698 C32.2547522,38.2951446 31.4674358,39.1347541 30.7707641,38.7009378 L30.7707641,38.7009378 L30.4227258,38.4916979 C27.3804779,36.7270194 24.1662103,36.5299574 21.2139637,37.2652857 C20.8782264,37.3489091 20.2913955,37.5704701 19.9351466,37.6682679 C19.5788977,37.7660657 19.1963263,37.587972 19.0475014,37.2386584 C18.8851469,36.857589 19.0624503,36.4170569 19.4435197,36.2547024 C19.697566,36.1464661 20.2811362,35.9710305 21.1942304,35.7283956 C23.2573015,35.2629648 25.9966885,35.2629648 27.7875405,35.79 C26.7289543,34.9536099 24.9268804,34.3771728 23.6311085,34.1610438 C22.8596618,34.0323698 21.7746919,34.0453508 21.2586034,34.0493069 L21.0640158,34.0499433 C20.6945972,34.0471888 20.3748654,33.7717804 20.3266295,33.395161 C20.2740085,32.9843035 20.5644166,32.6085799 20.9752741,32.5559589 C21.0095221,32.5515726 21.1933711,32.5383109 21.526821,32.5161738 Z M13.4526594,17.6424702 C17.9392122,14.4833722 22.3167193,13.5536197 26.0243405,13.9574533 C26.4195072,14.0004948 26.9251625,14.0861032 27.1383065,14.1426428 C27.3514505,14.1991824 27.5023882,14.3886795 27.5098235,14.6090696 C27.5172588,14.8294597 27.5676252,18.6102953 26.8809626,22.0280311 C26.1943,25.445767 24.9913505,27.9949391 23.1100545,29.2942928 C21.5191439,30.3930861 19.145762,30.8555732 16.1810976,30.8216405 C14.4532601,30.8018641 12.5989151,30.6132067 10.7035242,30.3015574 C10.0615308,30.1959978 8.80391639,29.9353938 6.930681,29.5197453 C6.72642754,29.4651622 6.57858138,29.28801 6.56135723,29.0772923 C6.51926812,28.559801 6.57309715,27.6796911 6.85249636,26.5434808 C7.3133133,24.6695135 8.25908285,22.7576392 9.81655444,20.9204921 C10.8034767,19.7563481 12.0097764,18.6584414 13.4526594,17.6424702 Z M26.5159185,15.0329356 C22.923082,14.3866581 18.3021299,15.4508587 14.0283836,18.4601141 C12.6542698,19.4276632 12.0337847,19.8515241 10.5793338,21.5671509 C9.12488297,23.2827778 7.73192983,26.0800561 7.55409571,28.6453668 C10.5793338,29.5 14.5207208,29.8025708 16.1925426,29.821706 C18.9689954,29.8534845 21.1585292,29.4268228 22.5417561,28.4714702 C24.1568726,27.3559586 25.2603414,25.0175961 25.9005542,21.8310557 C26.2193092,20.2445119 26.7528948,16.2637782 26.5159185,15.0329356 Z M58.8693302,12.7542298 C63.7328213,12.7777745 67.9060959,13.7847148 71.3891539,15.7750507 C76.6137409,18.7605545 78.7335211,22.0030472 79.2046911,26.6456821 C79.2279942,26.8752965 79.0911095,27.0910272 78.8734375,27.167739 C75.1256936,28.3105358 72.1493063,29.0201312 69.9442756,29.2965252 C66.6367295,29.7111162 64.0220967,29.5064666 62.335597,28.4807931 C60.4405627,27.3282958 59.3150633,24.7209134 58.7539872,21.0916535 C58.3799364,18.6721469 58.2670232,16.0477476 58.4152476,13.2184556 C58.4318542,12.9731037 58.6244049,12.7762518 58.8693302,12.7542298 Z M59.4761796,13.7267397 L59.4223532,13.7265641 C59.4223542,14.7567361 59.2226115,17.5776651 59.7422469,20.9388705 C60.2618824,24.300076 61.2856821,26.6718563 62.8552144,27.626394 C64.297491,28.503539 66.7185375,28.6930365 69.8199019,28.3042898 C71.448398,28.1001627 76.1376478,27.1207462 78.16416,26.3511883 C77.8955632,22.4869125 75.6087524,19.3368394 70.8932702,16.6433943 C66.34926,14.0478926 60.1625937,13.738573 59.4761796,13.7267397 Z" fill="#ff6699" class="color000 svgShape"></path><circle cx="47.395" cy="43.916" r="1.764" transform="rotate(-6 47.395 43.916)" fill="#ff6699" class="color000 svgShape"></circle><circle cx="39.328" cy="43.449" r="1.764" transform="rotate(-6 39.328 43.449)" fill="#ff6699" class="color000 svgShape"></circle><path fill-rule="nonzero" d="M77.5 43.5C75.290861 43.5 73.5 45.290861 73.5 47.5 73.5 49.709139 75.290861 51.5 77.5 51.5 79.709139 51.5 81.5 49.709139 81.5 47.5 81.5 45.290861 79.709139 43.5 77.5 43.5zM69 39.5C67.6192881 39.5 66.5 40.6192881 66.5 42 66.5 43.3807119 67.6192881 44.5 69 44.5 70.3807119 44.5 71.5 43.3807119 71.5 42 71.5 40.6192881 70.3807119 39.5 69 39.5zM70 49.5C68.6192881 49.5 67.5 50.6192881 67.5 52 67.5 53.3807119 68.6192881 54.5 70 54.5 71.3807119 54.5 72.5 53.3807119 72.5 52 72.5 50.6192881 71.3807119 49.5 70 49.5z" fill="#ff6699" class="color000 svgShape"></path><path fill-rule="nonzero" d="M77.5,56.5 C75.290861,56.5 73.5,58.290861 73.5,60.5 C73.5,62.709139 75.290861,64.5 77.5,64.5 C79.709139,64.5 81.5,62.709139 81.5,60.5 C81.5,58.290861 79.709139,56.5 77.5,56.5 Z" transform="matrix(-1 0 0 1 155 0)" fill="#ff6699" class="color000 svgShape"></path><path fill-rule="nonzero" d="M83 51.5C81.6192881 51.5 80.5 52.6192881 80.5 54 80.5 55.3807119 81.6192881 56.5 83 56.5 84.3807119 56.5 85.5 55.3807119 85.5 54 85.5 52.6192881 84.3807119 51.5 83 51.5zM83 65.5C81.6192881 65.5 80.5 66.6192881 80.5 68 80.5 69.3807119 81.6192881 70.5 83 70.5 84.3807119 70.5 85.5 69.3807119 85.5 68 85.5 66.6192881 84.3807119 65.5 83 65.5zM76 68.5C74.6192881 68.5 73.5 69.6192881 73.5 71 73.5 72.3807119 74.6192881 73.5 76 73.5 77.3807119 73.5 78.5 72.3807119 78.5 71 78.5 69.6192881 77.3807119 68.5 76 68.5z" fill="#ff6699" class="color000 svgShape"></path><path fill-rule="nonzero" d="M8.5,44.5 C6.290861,44.5 4.5,46.290861 4.5,48.5 C4.5,50.709139 6.290861,52.5 8.5,52.5 C10.709139,52.5 12.5,50.709139 12.5,48.5 C12.5,46.290861 10.709139,44.5 8.5,44.5 Z" transform="matrix(-1 0 0 1 17 0)" fill="#ff6699" class="color000 svgShape"></path><path fill-rule="nonzero" d="M17,40.5 C15.6192881,40.5 14.5,41.6192881 14.5,43 C14.5,44.3807119 15.6192881,45.5 17,45.5 C18.3807119,45.5 19.5,44.3807119 19.5,43 C19.5,41.6192881 18.3807119,40.5 17,40.5 Z" transform="matrix(-1 0 0 1 34 0)" fill="#ff6699" class="color000 svgShape"></path><path fill-rule="nonzero" d="M16,50.5 C14.6192881,50.5 13.5,51.6192881 13.5,53 C13.5,54.3807119 14.6192881,55.5 16,55.5 C17.3807119,55.5 18.5,54.3807119 18.5,53 C18.5,51.6192881 17.3807119,50.5 16,50.5 Z" transform="matrix(-1 0 0 1 32 0)" fill="#ff6699" class="color000 svgShape"></path><path fill-rule="nonzero" d="M8.5,57.5 C6.290861,57.5 4.5,59.290861 4.5,61.5 C4.5,63.709139 6.290861,65.5 8.5,65.5 C10.709139,65.5 12.5,63.709139 12.5,61.5 C12.5,59.290861 10.709139,57.5 8.5,57.5 Z" fill="#ff6699" class="color000 svgShape"></path><path fill-rule="nonzero" d="M3 52.5C1.61928813 52.5.5 53.6192881.5 55 .5 56.3807119 1.61928813 57.5 3 57.5 4.38071187 57.5 5.5 56.3807119 5.5 55 5.5 53.6192881 4.38071187 52.5 3 52.5zM3 66.5C1.61928813 66.5.5 67.6192881.5 69 .5 70.3807119 1.61928813 71.5 3 71.5 4.38071187 71.5 5.5 70.3807119 5.5 69 5.5 67.6192881 4.38071187 66.5 3 66.5z" transform="matrix(-1 0 0 1 6 0)" fill="#ff6699" class="color000 svgShape"></path><path fill-rule="nonzero" d="M10,69.5 C8.61928813,69.5 7.5,70.6192881 7.5,72 C7.5,73.3807119 8.61928813,74.5 10,74.5 C11.3807119,74.5 12.5,73.3807119 12.5,72 C12.5,70.6192881 11.3807119,69.5 10,69.5 Z" transform="matrix(-1 0 0 1 20 0)" fill="#ff6699" class="color000 svgShape"></path></g></svg></g></svg>