<svg xmlns="http://www.w3.org/2000/svg" enable-background="new 0 0 47.5 47.5" viewBox="0 0 47.5 47.5"><defs><clipPath id="a" clipPathUnits="userSpaceOnUse"><path d="M 0,38 38,38 38,0 0,0 0,38 Z"/></clipPath></defs><g clip-path="url(#a)" transform="matrix(1.25 0 0 -1.25 0 47.5)"><path fill="#e6aaaa" d="m 0,0 c 0,-6.075 -4.925,-11 -11,-11 l -12,0 c -6.075,0 -11,4.925 -11,11 0,6.075 4.925,11 11,11 l 12,0 C -4.925,11 0,6.075 0,0" transform="translate(36 19)"/><path fill="#662113" d="m 0,0 c 0,-3.313 -1.791,-6 -4,-6 -2.209,0 -4,2.687 -4,6 0,3.313 1.791,6 4,6 2.209,0 4,-2.687 4,-6" transform="translate(15 19)"/><path fill="#662113" d="m 0,0 c 0,-3.313 -1.791,-6 -4,-6 -2.209,0 -4,2.687 -4,6 0,3.313 1.791,6 4,6 2.209,0 4,-2.687 4,-6" transform="translate(31 19)"/></g></svg>